<?xml version="1.0" standalone="no"?>
<!DOCTYPE svg PUBLIC "-//W3C//DTD SVG 20010904//EN"
 "http://www.w3.org/TR/2001/REC-SVG-20010904/DTD/svg10.dtd">
<svg version="1.0" xmlns="http://www.w3.org/2000/svg"
 width="560.000000pt" height="560.000000pt" viewBox="0 0 560.000000 560.000000"
 preserveAspectRatio="xMidYMid meet">
<metadata>
Created by potrace 1.11, written by Peter Selinger 2001-2013
</metadata>
<g transform="translate(0.000000,560.000000) scale(0.100000,-0.100000)"
fill="#000000" stroke="none">
<path d="M2674 5578 c-117 -38 -222 -147 -257 -264 -8 -27 -15 -79 -15 -114
l0 -65 -68 -21 c-80 -24 -205 -81 -276 -124 -27 -17 -53 -31 -59 -33 -12 -3
-107 -85 -180 -157 -66 -65 -163 -192 -208 -272 -27 -48 -47 -66 -129 -121
-509 -339 -863 -835 -1012 -1416 -24 -96 -38 -166 -46 -236 -4 -27 -10 -72
-15 -100 -11 -67 -3 -503 11 -585 6 -36 13 -78 16 -95 50 -293 193 -649 359
-896 255 -378 567 -650 965 -843 85 -41 211 -93 279 -115 135 -45 367 -95 501
-110 110 -12 411 -11 520 0 437 48 883 232 1243 516 154 121 359 344 488 533
196 286 346 675 385 1000 3 25 10 72 14 105 9 63 6 487 -3 502 -3 5 -8 34 -11
64 -13 128 -77 376 -139 539 -176 461 -532 892 -959 1163 -38 24 -65 51 -84
84 -90 155 -216 302 -333 390 -13 9 -14 16 -4 31 11 18 9 19 -20 17 -22 -2
-49 7 -88 31 -78 47 -178 93 -272 124 l-80 26 -2 70 c-2 85 -9 113 -48 187
-37 72 -101 130 -186 170 -84 40 -196 46 -287 15z m976 -634 c0 -8 -19 -13
-24 -6 -3 5 1 9 9 9 8 0 15 -2 15 -3z"/>
<path d="M1955 4950 c-3 -5 -1 -10 4 -10 6 0 11 5 11 10 0 6 -2 10 -4 10 -3 0
-8 -4 -11 -10z"/>
</g>
</svg>
